<mxfile host="app.diagrams.net" modified="2022-04-19T15:18:14.971Z" agent="5.0 (Windows NT 10.0; Win64; x64) AppleWebKit/537.36 (KHTML, like Gecko) Chrome/100.0.4896.88 Safari/537.36" etag="DL9RDoNXsg2_x4wuiwH8" version="17.4.5" type="github">
  <diagram id="erMgkz2ZATlxNSeNT2g7" name="Page-1">
    <mxGraphModel dx="560" dy="560" grid="1" gridSize="10" guides="1" tooltips="1" connect="1" arrows="1" fold="1" page="1" pageScale="1" pageWidth="850" pageHeight="1100" math="0" shadow="0">
      <root>
        <mxCell id="0" />
        <mxCell id="1" parent="0" />
        <mxCell id="MMb0wqJquSEBuEakPOYB-6" style="edgeStyle=orthogonalEdgeStyle;rounded=0;orthogonalLoop=1;jettySize=auto;html=1;fontSize=40;" edge="1" parent="1" source="MMb0wqJquSEBuEakPOYB-1">
          <mxGeometry relative="1" as="geometry">
            <mxPoint x="240" y="330" as="targetPoint" />
          </mxGeometry>
        </mxCell>
        <mxCell id="MMb0wqJquSEBuEakPOYB-1" value="&lt;font style=&quot;font-size: 40px&quot;&gt;PARA&lt;/font&gt;" style="text;html=1;align=center;verticalAlign=middle;resizable=0;points=[];autosize=1;strokeColor=none;fillColor=none;" vertex="1" parent="1">
          <mxGeometry x="70" y="250" width="120" height="30" as="geometry" />
        </mxCell>
        <mxCell id="MMb0wqJquSEBuEakPOYB-2" value="#DIGMA" style="text;html=1;align=center;verticalAlign=middle;resizable=0;points=[];autosize=1;strokeColor=none;fillColor=none;fontSize=40;" vertex="1" parent="1">
          <mxGeometry x="105" y="335" width="170" height="50" as="geometry" />
        </mxCell>
        <mxCell id="MMb0wqJquSEBuEakPOYB-7" style="edgeStyle=orthogonalEdgeStyle;rounded=0;orthogonalLoop=1;jettySize=auto;html=1;entryX=0.781;entryY=0.985;entryDx=0;entryDy=0;entryPerimeter=0;fontSize=40;" edge="1" parent="1" source="MMb0wqJquSEBuEakPOYB-3" target="MMb0wqJquSEBuEakPOYB-2">
          <mxGeometry relative="1" as="geometry" />
        </mxCell>
        <mxCell id="MMb0wqJquSEBuEakPOYB-3" value="PATO" style="text;html=1;align=center;verticalAlign=middle;resizable=0;points=[];autosize=1;strokeColor=none;fillColor=none;fontSize=40;" vertex="1" parent="1">
          <mxGeometry x="70" y="440" width="120" height="50" as="geometry" />
        </mxCell>
        <mxCell id="MMb0wqJquSEBuEakPOYB-4" value="" style="shape=partialRectangle;whiteSpace=wrap;html=1;bottom=1;right=1;left=1;top=0;fillColor=none;routingCenterX=-0.5;fontSize=40;strokeWidth=2;" vertex="1" parent="1">
          <mxGeometry x="70" y="275" width="120" height="10" as="geometry" />
        </mxCell>
        <mxCell id="MMb0wqJquSEBuEakPOYB-5" value="" style="shape=partialRectangle;whiteSpace=wrap;html=1;bottom=1;right=1;left=1;top=0;fillColor=none;routingCenterX=-0.5;fontSize=40;strokeWidth=2;" vertex="1" parent="1">
          <mxGeometry x="72" y="474" width="120" height="10" as="geometry" />
        </mxCell>
        <mxCell id="MMb0wqJquSEBuEakPOYB-9" value="&lt;font style=&quot;font-size: 20px&quot;&gt;LOGIC.&lt;/font&gt;" style="text;html=1;align=center;verticalAlign=middle;resizable=0;points=[];autosize=1;strokeColor=none;fillColor=none;fontSize=40;" vertex="1" parent="1">
          <mxGeometry x="210" y="424" width="80" height="60" as="geometry" />
        </mxCell>
        <mxCell id="MMb0wqJquSEBuEakPOYB-10" value="S." style="text;html=1;align=center;verticalAlign=middle;resizable=0;points=[];autosize=1;strokeColor=none;fillColor=none;fontSize=20;" vertex="1" parent="1">
          <mxGeometry x="211" y="467" width="30" height="30" as="geometry" />
        </mxCell>
        <mxCell id="MMb0wqJquSEBuEakPOYB-12" value="" style="endArrow=none;html=1;rounded=0;fontSize=20;" edge="1" parent="1">
          <mxGeometry width="50" height="50" relative="1" as="geometry">
            <mxPoint x="196" y="470" as="sourcePoint" />
            <mxPoint x="216" y="460" as="targetPoint" />
            <Array as="points">
              <mxPoint x="206" y="470" />
              <mxPoint x="206" y="460" />
            </Array>
          </mxGeometry>
        </mxCell>
        <mxCell id="MMb0wqJquSEBuEakPOYB-13" value="" style="endArrow=none;html=1;rounded=0;fontSize=20;" edge="1" parent="1">
          <mxGeometry width="50" height="50" relative="1" as="geometry">
            <mxPoint x="196" y="473" as="sourcePoint" />
            <mxPoint x="216" y="483" as="targetPoint" />
            <Array as="points">
              <mxPoint x="206" y="473" />
              <mxPoint x="206" y="483" />
            </Array>
          </mxGeometry>
        </mxCell>
        <mxCell id="MMb0wqJquSEBuEakPOYB-14" value="&lt;font style=&quot;font-size: 40px&quot;&gt;&amp;nbsp; &amp;nbsp; PRO-Fit&lt;br&gt;&amp;nbsp; Anti-Fit&lt;br&gt;&amp;nbsp; &amp;nbsp; &amp;nbsp; &lt;font color=&quot;#ff0000&quot; style=&quot;font-size: 40px&quot;&gt;Contra-Fit&lt;/font&gt;&lt;br&gt;&amp;nbsp; &lt;font color=&quot;#069968&quot; style=&quot;font-size: 40px&quot;&gt;&amp;nbsp;Para-Fit&lt;/font&gt;&lt;/font&gt;" style="text;html=1;align=center;verticalAlign=middle;resizable=0;points=[];autosize=1;strokeColor=none;fillColor=none;fontSize=20;" vertex="1" parent="1">
          <mxGeometry x="280" y="294" width="260" height="130" as="geometry" />
        </mxCell>
        <mxCell id="MMb0wqJquSEBuEakPOYB-15" value="&lt;font color=&quot;#330000&quot; style=&quot;font-size: 70px&quot;&gt;}&lt;/font&gt;" style="text;html=1;align=center;verticalAlign=middle;resizable=0;points=[];autosize=1;strokeColor=none;fillColor=none;fontSize=40;fontColor=#069968;" vertex="1" parent="1">
          <mxGeometry x="530" y="275" width="40" height="60" as="geometry" />
        </mxCell>
        <mxCell id="MMb0wqJquSEBuEakPOYB-16" value="" style="endArrow=none;dashed=1;html=1;dashPattern=1 3;strokeWidth=2;rounded=0;fontSize=70;fontColor=#330000;exitX=1;exitY=0.813;exitDx=0;exitDy=0;exitPerimeter=0;strokeColor=#FF0000;" edge="1" parent="1">
          <mxGeometry width="50" height="50" relative="1" as="geometry">
            <mxPoint x="517" y="404.68999999999994" as="sourcePoint" />
            <mxPoint x="547" y="345" as="targetPoint" />
            <Array as="points">
              <mxPoint x="547" y="405" />
            </Array>
          </mxGeometry>
        </mxCell>
        <mxCell id="MMb0wqJquSEBuEakPOYB-17" value="" style="endArrow=none;dashed=1;html=1;dashPattern=1 3;strokeWidth=2;rounded=0;fontSize=70;fontColor=#330000;strokeColor=#069968;" edge="1" parent="1">
          <mxGeometry width="50" height="50" relative="1" as="geometry">
            <mxPoint x="340" y="450" as="sourcePoint" />
            <mxPoint x="550" y="400" as="targetPoint" />
            <Array as="points">
              <mxPoint x="550" y="450" />
            </Array>
          </mxGeometry>
        </mxCell>
      </root>
    </mxGraphModel>
  </diagram>
</mxfile>
